<svg width="24" height="24" viewBox="0 0 24 24" fill="none" xmlns="http://www.w3.org/2000/svg">
<rect opacity="0.01" width="24" height="24" fill="black"/>
<path fill-rule="evenodd" clip-rule="evenodd" d="M6.37706 3.69212C10.3563 1.00345 15.6849 1.52313 19.0697 4.92999L19.1197 4.94999C22.5265 8.33475 23.0462 13.6634 20.3575 17.6426C17.6689 21.6218 12.5312 23.1279 8.11967 21.23C7.91779 21.1449 7.6972 21.1138 7.47967 21.14L3.19967 22H2.99967C2.72697 22.0069 2.46326 21.9022 2.26967 21.71C2.03227 21.4714 1.9308 21.1294 1.99967 20.8L2.87967 16.57C2.91702 16.3525 2.88556 16.1288 2.78967 15.93C0.891762 11.5185 2.39782 6.3808 6.37706 3.69212ZM6.99967 12C6.99967 12.5523 7.44739 13 7.99967 13C8.55196 13 8.99967 12.5523 8.99967 12C8.99967 11.4477 8.55196 11 7.99967 11C7.44739 11 6.99967 11.4477 6.99967 12ZM11.9997 13C11.4474 13 10.9997 12.5523 10.9997 12C10.9997 11.4477 11.4474 11 11.9997 11C12.552 11 12.9997 11.4477 12.9997 12C12.9997 12.5523 12.552 13 11.9997 13ZM14.9997 12C14.9997 12.5523 15.4474 13 15.9997 13C16.552 13 16.9997 12.5523 16.9997 12C16.9997 11.4477 16.552 11 15.9997 11C15.4474 11 14.9997 11.4477 14.9997 12Z" fill="white"/>
</svg>
