<svg width="32" height="32" viewBox="0 0 32 32" fill="none" xmlns="http://www.w3.org/2000/svg">
<g filter="url(#filter0_d_207_2768)">
<rect opacity="0.01" x="4" width="24" height="24" fill="black"/>
<path fill-rule="evenodd" clip-rule="evenodd" d="M9 5H23C24.6569 5 26 6.34315 26 8V16C26 17.6569 24.6569 19 23 19H9C7.34315 19 6 17.6569 6 16V8C6 6.34315 7.34315 5 9 5ZM11 15H15C15.5523 15 16 14.5523 16 14C16 13.4477 15.5523 13 15 13H11C10.4477 13 10 13.4477 10 14C10 14.5523 10.4477 15 11 15ZM21 15H19C18.4477 15 18 14.5523 18 14C18 13.4477 18.4477 13 19 13H21C21.5523 13 22 13.4477 22 14C22 14.5523 21.5523 15 21 15ZM8 9H24V8C24 7.44772 23.5523 7 23 7H9C8.44772 7 8 7.44772 8 8V9Z" fill="white"/>
</g>
<defs>
<filter id="filter0_d_207_2768" x="0" y="0" width="32" height="32" filterUnits="userSpaceOnUse" color-interpolation-filters="sRGB">
<feFlood flood-opacity="0" result="BackgroundImageFix"/>
<feColorMatrix in="SourceAlpha" type="matrix" values="0 0 0 0 0 0 0 0 0 0 0 0 0 0 0 0 0 0 127 0" result="hardAlpha"/>
<feOffset dy="4"/>
<feGaussianBlur stdDeviation="2"/>
<feComposite in2="hardAlpha" operator="out"/>
<feColorMatrix type="matrix" values="0 0 0 0 0 0 0 0 0 0 0 0 0 0 0 0 0 0 0.25 0"/>
<feBlend mode="normal" in2="BackgroundImageFix" result="effect1_dropShadow_207_2768"/>
<feBlend mode="normal" in="SourceGraphic" in2="effect1_dropShadow_207_2768" result="shape"/>
</filter>
</defs>
</svg>
