<svg width="18" height="18" viewBox="0 0 18 18" fill="none" xmlns="http://www.w3.org/2000/svg">
<path fill-rule="evenodd" clip-rule="evenodd" d="M13 5C13 2.79086 11.2091 1 9 1C6.79086 1 5 2.79086 5 5C5 7.20914 6.79086 9 9 9C11.2091 9 13 7.20914 13 5ZM7 5C7 3.89543 7.89543 3 9 3C10.1046 3 11 3.89543 11 5C11 6.10457 10.1046 7 9 7C7.89543 7 7 6.10457 7 5ZM9 10C11.67 10 17 11.33 17 14V17H1V14C1 11.33 6.33 10 9 10ZM2.9 14C2.9 13.36 6.03 11.9 9 11.9C11.97 11.9 15.1 13.36 15.1 14V15.1H2.9V14Z" fill="black"/>
<mask id="mask0_0_40130" style="mask-type:luminance" maskUnits="userSpaceOnUse" x="1" y="1" width="16" height="16">
<path fill-rule="evenodd" clip-rule="evenodd" d="M13 5C13 2.79086 11.2091 1 9 1C6.79086 1 5 2.79086 5 5C5 7.20914 6.79086 9 9 9C11.2091 9 13 7.20914 13 5ZM7 5C7 3.89543 7.89543 3 9 3C10.1046 3 11 3.89543 11 5C11 6.10457 10.1046 7 9 7C7.89543 7 7 6.10457 7 5ZM9 10C11.67 10 17 11.33 17 14V17H1V14C1 11.33 6.33 10 9 10ZM2.9 14C2.9 13.36 6.03 11.9 9 11.9C11.97 11.9 15.1 13.36 15.1 14V15.1H2.9V14Z" fill="white"/>
</mask>
<g mask="url(#mask0_0_40130)">
<rect width="18" height="18" fill="#2D2D2D"/>
</g>
</svg>
